# xmcd
#
# Track frame offsets: 
#        150
#        8401
#        34127
#        53699
#        83624
#        101401
#        119325
#        141000
#
# Disc length: 2363 seconds
#
# Revision: 0
# Processed by: cddbd v1.5.2PL0 Copyright (c) Steve Scherf et al.
# Submitted via: ExactAudioCopy v0.99pb5
#
DISCID=54093908
DTITLE=LIVIN FREE - Voices from beyond
DYEAR=2019
DGENRE=Blues
TTITLE0=Track01 Voices from beyond
TTITLE1=Track02 Dirty old town
TTITLE2=Track03 Stop down it to me
TTITLE3=Track04 Emptiness
TTITLE4=Track05 Livin´ free
TTITLE5=Track06 Down to the river
TTITLE6=Track07 Hill Cross Blues
TTITLE7=Track08 Mirrors
EXTD=
EXTT0=
EXTT1=
EXTT2=
EXTT3=
EXTT4=
EXTT5=
EXTT6=
EXTT7=
PLAYORDER=
